<?xml version="1.0" encoding="UTF-8"?>
<svg id="icons" xmlns="http://www.w3.org/2000/svg" viewBox="0 0 400 400">
  <defs>
    <style>
      .cls-1 {
        fill: #0098c7;
      }

      .cls-1, .cls-2, .cls-3, .cls-4 {
        stroke-width: 0px;
      }

      .cls-2 {
        fill: #005c8a;
      }

      .cls-3 {
        fill: #61a60e;
      }

      .cls-4 {
        fill: #6c4b94;
      }
    </style>
  </defs>
  <g id="art">
    <path class="cls-3" d="M394.33,264.65l-95.13,119.28-7.83-16.29,85.37-107.04,17.59,4.06ZM108.62,367.64l-85.36-107.04-17.59,4.05,95.12,119.29,7.83-16.29Z"/>
    <path class="cls-4" d="M0,239.86L33.95,91.1l14.13,11.24-30.46,133.47-17.62,4.05ZM400,239.86l-33.97-148.76-14.12,11.24,30.46,133.47,17.63,4.05Z"/>
    <path class="cls-1" d="M276.28,394.97H123.72l7.82-16.28h136.92l7.82,16.28ZM350.19,71.21L212.7,5.03v18.06l123.34,59.38,14.15-11.26ZM187.28,23.08l-123.31,59.39-14.16-11.26L187.3,5.03v18.05Z"/>
    <path class="cls-2" d="M267.84,347.84h-135.68l-84.6-106.08,30.19-132.28,122.26-58.87,122.25,58.87,30.19,132.28-84.61,106.08ZM140,331.56h119.99l74.82-93.82-26.69-116.99-108.09-52.07-108.14,52.07-26.69,116.99,74.81,93.82Z"/>
  </g>
</svg>